<svg xmlns="http://www.w3.org/2000/svg" width="70.27" height="70.27" viewBox="0 0 70.27 70.27"><g id="olive-spa-logo" transform="translate(-492 -230)"><g id="Group_13792" data-name="Group 13792" transform="translate(492 230)"><path id="Path_25781" data-name="Path 25781" d="M1.162,69.108H69.106V1.162H1.162V69.106ZM69.689,70.27H0V0H70.27V70.27Z" fill="#231f20"></path><path id="Path_25782" data-name="Path 25782" d="M100.469,268.536a5,5,0,0,0-.817-3.088,3.106,3.106,0,0,0-4.695,0,5,5,0,0,0-.817,3.086,4.632,4.632,0,0,0,.834,2.987,3.023,3.023,0,0,0,4.656-.011,4.742,4.742,0,0,0,.838-2.976m2.087,4.12,1.28-.218v-7.883l-1.343-.228V263.8h3.979v.528l-1.37.228v8.08l3.265-.232,1.405-2.5.38.081c-.169,1.071-.339,2.141-.505,3.212h-7.153v-.528l.062-.011Zm8.319,0,1.294-.218v-7.882l-1.357-.228V263.8h3.98v.528l-1.357.228v7.882l1.357.229v.528h-3.98v-.528Zm15.391,0,1.28-.218v-7.883l-1.343-.228V263.8h7.074c.127.826.257,1.653.381,2.479l-.315.1-1.261-1.844-3.271-.234v3.844l1.717-.113.578-1.32h.367v3.241h-.366l-.578-1.213-1.718-.1v4.007l3.763-.2,1.367-2.273.363.1q-.23,1.455-.466,2.911H126.2v-.528l.062-.011Zm-9.437-8.1-1.136-.232V263.8h3.59v.528l-1.14.209,2.716,7.023,2.481-7.009-1.224-.223V263.8h3.159v.525l-1.04.232-3.458,8.746h-.437l-3.512-8.745Zm-24.059,3.98a5.113,5.113,0,0,1,1.363-3.44,4.282,4.282,0,0,1,6.346,0,5.114,5.114,0,0,1,1.365,3.44,4.958,4.958,0,0,1-1.354,3.392,4.382,4.382,0,0,1-6.369,0,4.981,4.981,0,0,1-1.351-3.395Z" transform="translate(-78.396 -222.835)" fill="#d2ab67"></path><path id="Path_25783" data-name="Path 25783" d="M155.376,92.832l-.048,0a.208.208,0,0,1-.112-.065.194.194,0,0,1-.046-.119.169.169,0,0,1,0-.048,6.779,6.779,0,0,1,6.411-5.506l.048,0a.2.2,0,0,1,.11.065.194.194,0,0,1,.046.119l0,.046a6.776,6.776,0,0,1-6.408,5.51m21.823-.006a.14.14,0,0,1-.051,0,6.779,6.779,0,0,1-6.411-5.51l0-.043a.2.2,0,0,1,.164-.189l.043,0a6.774,6.774,0,0,1,6.408,5.508v0a.158.158,0,0,1,0,.046.186.186,0,0,1-.048.119.211.211,0,0,1-.107.065Zm-.051-21.078a.174.174,0,0,1,.05,0,.2.2,0,0,1,.11.067.194.194,0,0,1,.046.119.163.163,0,0,1,0,.048,6.773,6.773,0,0,1-6.408,5.5l-.043,0a.2.2,0,0,1-.115-.065.2.2,0,0,1-.048-.121l0-.045a6.781,6.781,0,0,1,6.411-5.51Zm-21.821,0a.24.24,0,0,1,.048,0,6.773,6.773,0,0,1,6.408,5.51l0,.048a.189.189,0,0,1-.046.118.2.2,0,0,1-.108.065.257.257,0,0,1-.05,0,6.773,6.773,0,0,1-6.408-5.51l0-.043a.193.193,0,0,1,.046-.122.2.2,0,0,1,.112-.067Z" transform="translate(-131.128 -60.633)" fill="#d2ab67"></path><path id="Path_25784" data-name="Path 25784" d="M154.339,58.62l1.681-1.68-1.681-1.68a2.373,2.373,0,0,0-3.354,0l0,0a2.371,2.371,0,0,0,0,3.353l0,0a2.373,2.373,0,0,0,3.354,0m-12.8-10.4a2.374,2.374,0,1,0,4.052-1.678l-1.678-1.678-1.681,1.678A2.37,2.37,0,0,0,141.535,48.216Zm2.372,20.806,1.678-1.678a2.372,2.372,0,1,0-3.359,0l1.68,1.678Zm-8.7-9.71a2.373,2.373,0,1,0-1.68-4.05l-1.678,1.678,1.678,1.678A2.366,2.366,0,0,0,135.211,59.312Zm10.522,1.827L147.1,62.51a4.547,4.547,0,0,1,0,6.421l-3.195,3.2-3.2-3.2a4.544,4.544,0,0,1-.022-6.4l1.394-1.393-2.7-2.7a4.7,4.7,0,0,1-.4.869,4.275,4.275,0,0,1-.645.826h0a4.515,4.515,0,0,1-6.385,0c-1.069-.971-2.164-2.166-3.2-3.2q1.6-1.6,3.2-3.2a4.519,4.519,0,0,1,6.383,0l0,0a.343.343,0,0,1,.039.046l0,0h.008l5.519,5.517,1.762-1.762,1.827,1.825-1.763,1.763Zm7.054-8.715a4.488,4.488,0,0,1,3.141,1.32l3.2,3.2-3.2,3.2a4.474,4.474,0,0,1-1.473.982,4.7,4.7,0,0,1-3.5,0,4.491,4.491,0,0,1-1.477-.984l-5.57-5.572c-.587.587-1.178,1.173-1.763,1.763L140.318,54.5q.885-.878,1.765-1.763l-1.394-1.393a4.547,4.547,0,0,1,.022-6.4l3.2-3.2,3.195,3.2a4.544,4.544,0,0,1,0,6.419l-1.371,1.371,2.374,2.375,1.664-1.6,0,.022a4.515,4.515,0,0,1,3.02-1.114Z" transform="translate(-108.802 -35.281)" fill="#231f20"></path><path id="Path_25785" data-name="Path 25785" d="M151.2,358.14l1.25.091c.2.012.369.025.528.025.82,0,1.278-.178,1.529-.528a2.844,2.844,0,0,0,.305-1.614,2.281,2.281,0,0,0-.486-1.731,2.383,2.383,0,0,0-1.67-.425H151.2v4.182Zm-2.547,4.028,1.28-.218v-7.883l-1.343-.228v-.53h4.174a3.817,3.817,0,0,1,2.446.775,2.539,2.539,0,0,1,.92,2.03,2.79,2.79,0,0,1-.872,2.07,3.174,3.174,0,0,1-2.212.761c-.153,0-.316-.006-.49-.022s-.349-.039-.531-.073l-.824-.146v3.247l1.382.228v.528h-3.993v-.528l.064-.011Zm11.592-3.832h2.722l-1.391-3.468Zm-3.483,3.832,1.212-.222,3.725-8.757h.421l3.661,8.759,1.136.232v.527h-3.723v-.528l1.247-.223-1.21-2.973H160l-1.131,2.973,1.182.223v.528H156.7v-.528l.062-.011Zm-15.666-.339-.287.879h-.4l-.363-3.344.376-.1.026.057a6.483,6.483,0,0,0,1.416,2.16,2.441,2.441,0,0,0,1.714.645,2.076,2.076,0,0,0,1.391-.429,1.524,1.524,0,0,0,.482-1.2,1.474,1.474,0,0,0-.465-1.222,6.433,6.433,0,0,0-2-.992,5.6,5.6,0,0,1-1.845-1,2.235,2.235,0,0,1-.756-1.74,2.276,2.276,0,0,1,.7-1.7,2.578,2.578,0,0,1,1.8-.638,3.077,3.077,0,0,1,1.971.727l.249-.62h.37l.353,2.866-.366.06-.025-.05a5.879,5.879,0,0,0-1.181-1.735,1.97,1.97,0,0,0-1.387-.559,1.67,1.67,0,0,0-1.137.359,1.286,1.286,0,0,0-.4,1,1.227,1.227,0,0,0,.383,1.029,5.811,5.811,0,0,0,1.7.849,7.4,7.4,0,0,1,2.2,1.142,2.461,2.461,0,0,1,.877,1.992,2.38,2.38,0,0,1-.81,1.855,3.2,3.2,0,0,1-2.126.693,3.54,3.54,0,0,1-1.379-.276,3.615,3.615,0,0,1-1.089-.71Z" transform="translate(-118.343 -298.468)" fill="#231f20"></path></g></g></svg>